<svg width="55" height="68" viewBox="0 0 55 68" fill="none" xmlns="http://www.w3.org/2000/svg">
<path d="M41.752 33.44C45.656 34.272 48.792 36.224 51.16 39.296C53.528 42.304 54.712 45.76 54.712 49.664C54.712 55.296 52.728 59.776 48.76 63.104C44.856 66.368 39.384 68 32.344 68H0.952V0.607998H31.288C38.136 0.607998 43.48 2.176 47.32 5.31199C51.224 8.448 53.176 12.704 53.176 18.08C53.176 22.048 52.12 25.344 50.008 27.968C47.96 30.592 45.208 32.416 41.752 33.44ZM17.368 27.872H28.12C30.808 27.872 32.856 27.296 34.264 26.144C35.736 24.928 36.472 23.168 36.472 20.864C36.472 18.56 35.736 16.8 34.264 15.584C32.856 14.368 30.808 13.76 28.12 13.76H17.368V27.872ZM29.464 54.752C32.216 54.752 34.328 54.144 35.8 52.928C37.336 51.648 38.104 49.824 38.104 47.456C38.104 45.088 37.304 43.232 35.704 41.888C34.168 40.544 32.024 39.872 29.272 39.872H17.368V54.752H29.464Z" fill="url(#paint0_linear_311_69)"/>
<defs>
<linearGradient id="paint0_linear_311_69" x1="76" y1="-38" x2="-19.5" y2="95" gradientUnits="userSpaceOnUse">
<stop offset="0.17493" stop-color="white"/>
<stop offset="0.838897" stop-color="#042F2E"/>
</linearGradient>
</defs>
</svg>
